<mxfile host="app.diagrams.net" agent="Mozilla/5.0 (Windows NT 10.0; Win64; x64) AppleWebKit/537.36 (KHTML, like Gecko) Chrome/136.0.0.0 Safari/537.36 Edg/136.0.0.0" version="26.2.14">
  <diagram name="PÃ¡gina-1" id="gIQHkPaeoshHRkJNwg2A">
    <mxGraphModel dx="1097" dy="701" grid="0" gridSize="10" guides="1" tooltips="1" connect="1" arrows="1" fold="1" page="1" pageScale="1" pageWidth="827" pageHeight="1169" background="light-dark(#FFFFFF,#FFFFFF)" math="0" shadow="0">
      <root>
        <mxCell id="0" />
        <mxCell id="1" parent="0" />
        <mxCell id="Ic24lq9H9HgJuVMbNpVe-17" style="edgeStyle=orthogonalEdgeStyle;rounded=0;orthogonalLoop=1;jettySize=auto;html=1;entryX=0;entryY=0.5;entryDx=0;entryDy=0;fontColor=light-dark(#000000,#000000);strokeColor=light-dark(#000000,#000000);strokeWidth=2;labelBackgroundColor=none;" edge="1" parent="1">
          <mxGeometry relative="1" as="geometry">
            <mxPoint x="112" y="200" as="sourcePoint" />
            <mxPoint x="447" y="200" as="targetPoint" />
            <Array as="points">
              <mxPoint x="116" y="200" />
            </Array>
          </mxGeometry>
        </mxCell>
        <mxCell id="Ic24lq9H9HgJuVMbNpVe-18" style="edgeStyle=orthogonalEdgeStyle;rounded=0;orthogonalLoop=1;jettySize=auto;html=1;fontColor=light-dark(#000000,#000000);strokeColor=light-dark(#000000,#000000);strokeWidth=2;labelBackgroundColor=none;" edge="1" parent="1" source="Ic24lq9H9HgJuVMbNpVe-3" target="Ic24lq9H9HgJuVMbNpVe-10">
          <mxGeometry relative="1" as="geometry">
            <Array as="points">
              <mxPoint x="325" y="276" />
              <mxPoint x="325" y="276" />
            </Array>
          </mxGeometry>
        </mxCell>
        <mxCell id="Ic24lq9H9HgJuVMbNpVe-22" style="edgeStyle=orthogonalEdgeStyle;rounded=0;orthogonalLoop=1;jettySize=auto;html=1;fontColor=light-dark(#000000,#000000);strokeColor=light-dark(#000000,#000000);strokeWidth=2;labelBackgroundColor=none;" edge="1" parent="1" target="Ic24lq9H9HgJuVMbNpVe-13">
          <mxGeometry relative="1" as="geometry">
            <mxPoint x="115" y="460" as="sourcePoint" />
            <Array as="points">
              <mxPoint x="115" y="610" />
            </Array>
          </mxGeometry>
        </mxCell>
        <mxCell id="Ic24lq9H9HgJuVMbNpVe-3" value="Professor" style="shape=umlActor;verticalLabelPosition=bottom;verticalAlign=top;html=1;outlineConnect=0;fontColor=light-dark(#000000,#000000);strokeColor=light-dark(#000000,#000000);fillColor=none;" vertex="1" parent="1">
          <mxGeometry x="70" y="250" width="90" height="180" as="geometry" />
        </mxCell>
        <mxCell id="Ic24lq9H9HgJuVMbNpVe-8" value="Fazer Login" style="ellipse;whiteSpace=wrap;html=1;fontColor=light-dark(#000000,#000000);labelBackgroundColor=none;labelBorderColor=none;fillColor=none;strokeColor=light-dark(#000000,#000000);strokeWidth=2;" vertex="1" parent="1">
          <mxGeometry x="445" y="109" width="150" height="50" as="geometry" />
        </mxCell>
        <mxCell id="Ic24lq9H9HgJuVMbNpVe-9" value="Cadastrar Turmas" style="ellipse;whiteSpace=wrap;html=1;fontColor=light-dark(#000000,#000000);strokeColor=light-dark(#000000,#000000);strokeWidth=2;labelBackgroundColor=none;fillColor=none;" vertex="1" parent="1">
          <mxGeometry x="445" y="176" width="150" height="50" as="geometry" />
        </mxCell>
        <mxCell id="Ic24lq9H9HgJuVMbNpVe-10" value="Cadastrar Turmas" style="ellipse;whiteSpace=wrap;html=1;fontColor=light-dark(#000000,#000000);strokeColor=light-dark(#000000,#000000);strokeWidth=2;labelBackgroundColor=none;fillColor=none;" vertex="1" parent="1">
          <mxGeometry x="449" y="250" width="150" height="50" as="geometry" />
        </mxCell>
        <mxCell id="Ic24lq9H9HgJuVMbNpVe-11" value="Excluir Turmas" style="ellipse;whiteSpace=wrap;html=1;fontColor=light-dark(#000000,#000000);strokeColor=light-dark(#000000,#000000);strokeWidth=2;labelBackgroundColor=none;fillColor=none;" vertex="1" parent="1">
          <mxGeometry x="449" y="380" width="150" height="50" as="geometry" />
        </mxCell>
        <mxCell id="Ic24lq9H9HgJuVMbNpVe-12" value="Cadastrar Nova Atividade" style="ellipse;whiteSpace=wrap;html=1;fontColor=light-dark(#000000,#000000);strokeColor=light-dark(#000000,#000000);strokeWidth=2;labelBackgroundColor=none;fillColor=none;" vertex="1" parent="1">
          <mxGeometry x="449" y="491" width="150" height="50" as="geometry" />
        </mxCell>
        <mxCell id="Ic24lq9H9HgJuVMbNpVe-13" value="Listar Atividades" style="ellipse;whiteSpace=wrap;html=1;fontColor=light-dark(#000000,#000000);strokeColor=light-dark(#000000,#000000);strokeWidth=2;labelBackgroundColor=none;fillColor=none;" vertex="1" parent="1">
          <mxGeometry x="453" y="585" width="150" height="50" as="geometry" />
        </mxCell>
        <mxCell id="Ic24lq9H9HgJuVMbNpVe-14" value="Listar Turmas" style="ellipse;whiteSpace=wrap;html=1;fontColor=light-dark(#000000,#000000);strokeColor=light-dark(#000000,#000000);strokeWidth=2;labelBackgroundColor=none;fillColor=none;" vertex="1" parent="1">
          <mxGeometry x="449" y="305" width="150" height="50" as="geometry" />
        </mxCell>
        <mxCell id="Ic24lq9H9HgJuVMbNpVe-15" style="edgeStyle=orthogonalEdgeStyle;rounded=0;orthogonalLoop=1;jettySize=auto;html=1;entryX=0.021;entryY=0.473;entryDx=0;entryDy=0;entryPerimeter=0;fontColor=light-dark(#000000,#000000);strokeColor=light-dark(#000000,#000000);strokeWidth=2;labelBackgroundColor=none;" edge="1" parent="1" target="Ic24lq9H9HgJuVMbNpVe-8">
          <mxGeometry relative="1" as="geometry">
            <mxPoint x="112" y="246" as="sourcePoint" />
            <mxPoint x="395.95000000000005" y="112.45000000000005" as="targetPoint" />
            <Array as="points">
              <mxPoint x="112" y="133" />
            </Array>
          </mxGeometry>
        </mxCell>
        <mxCell id="Ic24lq9H9HgJuVMbNpVe-19" style="edgeStyle=orthogonalEdgeStyle;rounded=0;orthogonalLoop=1;jettySize=auto;html=1;entryX=0.008;entryY=0.703;entryDx=0;entryDy=0;entryPerimeter=0;fontColor=light-dark(#000000,#000000);strokeColor=light-dark(#000000,#000000);strokeWidth=2;labelBackgroundColor=none;" edge="1" parent="1" source="Ic24lq9H9HgJuVMbNpVe-3" target="Ic24lq9H9HgJuVMbNpVe-14">
          <mxGeometry relative="1" as="geometry">
            <Array as="points">
              <mxPoint x="401" y="340" />
            </Array>
          </mxGeometry>
        </mxCell>
        <mxCell id="Ic24lq9H9HgJuVMbNpVe-20" style="edgeStyle=orthogonalEdgeStyle;rounded=0;orthogonalLoop=1;jettySize=auto;html=1;entryX=0.001;entryY=0.552;entryDx=0;entryDy=0;entryPerimeter=0;fontColor=light-dark(#000000,#000000);strokeColor=light-dark(#000000,#000000);strokeWidth=2;labelBackgroundColor=none;" edge="1" parent="1" target="Ic24lq9H9HgJuVMbNpVe-11">
          <mxGeometry relative="1" as="geometry">
            <mxPoint x="160" y="408" as="sourcePoint" />
            <mxPoint x="424.70000000000005" y="403.70000000000005" as="targetPoint" />
            <Array as="points">
              <mxPoint x="160" y="408" />
            </Array>
          </mxGeometry>
        </mxCell>
        <mxCell id="Ic24lq9H9HgJuVMbNpVe-21" style="edgeStyle=orthogonalEdgeStyle;rounded=0;orthogonalLoop=1;jettySize=auto;html=1;entryX=0;entryY=0.5;entryDx=0;entryDy=0;fontColor=light-dark(#000000,#000000);strokeColor=light-dark(#000000,#000000);strokeWidth=2;labelBackgroundColor=none;" edge="1" parent="1" target="Ic24lq9H9HgJuVMbNpVe-12">
          <mxGeometry relative="1" as="geometry">
            <mxPoint x="212" y="408" as="sourcePoint" />
            <mxPoint x="443" y="443.7" as="targetPoint" />
            <Array as="points">
              <mxPoint x="212" y="516" />
            </Array>
          </mxGeometry>
        </mxCell>
      </root>
    </mxGraphModel>
  </diagram>
</mxfile>
